<?xml version="1.0" encoding="UTF-8"?>
<svg width="24px" height="24px" viewBox="0 0 24 24" version="1.1" xmlns="http://www.w3.org/2000/svg" xmlns:xlink="http://www.w3.org/1999/xlink">
    <!-- Generator: Sketch 55.2 (78181) - https://sketchapp.com -->
    <title>facebook</title>
    <desc>Created with Sketch.</desc>
    <g id="facebook" stroke="none" stroke-width="1" fill="none" fill-rule="evenodd">
        <path d="M13.2,19.9 L10.1,19.9 L10.1,10.9 L8.3,10.9 L8.3,8.1 L10.1,8.1 L10.1,7.1 C10.1,5.2 11.3,4 13.4,4 C13.6,4 13.8,4 14.1,4 C14.3,4 14.5,4 14.7,4 C14.9,4 15.1,4 15.3,4 L15.8,4 L15.8,6.8 L14.9,6.8 C14.7,6.8 14.3,6.8 14,6.8 C13.3,6.8 13.2,6.9 13.2,7.3 L13.2,8.1 L15.6,8.1 L15.6,10.9 L13.2,10.9 L13.2,19.9 Z" id="Path" fill="#6039E2" fill-rule="nonzero"></path>
    </g>
</svg>