<?xml version="1.0" encoding="UTF-8"?>
<svg width="156px" height="24px" viewBox="0 0 156 24" version="1.1" xmlns="http://www.w3.org/2000/svg" xmlns:xlink="http://www.w3.org/1999/xlink">
    <!-- Generator: Sketch 55.2 (78181) - https://sketchapp.com -->
    <title>Artboard</title>
    <desc>Created with Sketch.</desc>
    <g id="Artboard" stroke="none" stroke-width="1" fill="none" fill-rule="evenodd">
        <g id="logo--white-with-R-(1)" fill="#FFFFFF" fill-rule="nonzero">
            <path d="M151.138462,8.43076923 C148.8,8.43076923 146.953846,6.52307692 146.953846,4.24615385 C146.953846,1.96923077 148.861538,0.0615384615 151.138462,0.0615384615 C153.415385,0.0615384615 155.323077,1.96923077 155.323077,4.24615385 C155.323077,6.52307692 153.476923,8.43076923 151.138462,8.43076923 Z M151.138462,0.676923077 C149.169231,0.676923077 147.569231,2.27692308 147.569231,4.24615385 C147.569231,6.21538462 149.169231,7.81538462 151.138462,7.81538462 C153.107692,7.81538462 154.707692,6.21538462 154.707692,4.24615385 C154.707692,2.27692308 153.107692,0.676923077 151.138462,0.676923077 Z" id="Shape"></path>
            <g id="Group">
                <polygon id="Path" points="0.492307692 0.615384615 14.6461538 0.615384615 14.6461538 3.56923077 3.93846154 3.56923077 3.93846154 10.5230769 13.6 10.5230769 13.6 13.4769231 3.93846154 13.4769231 3.93846154 23.4461538 0.492307692 23.4461538"></polygon>
                <polygon id="Path" points="18.2769231 0.615384615 21.7230769 0.615384615 21.7230769 20.4307692 32 20.4307692 32 23.3846154 18.2153846 23.3846154 18.2153846 0.615384615"></polygon>
                <path d="M43.0153846,23.6923077 C37.1076923,23.6923077 32.7384615,19.2615385 32.7384615,12 C32.7384615,4.67692308 37.1076923,0.307692308 43.0153846,0.307692308 C48.9230769,0.307692308 53.2923077,4.73846154 53.2923077,12 C53.2307692,19.2615385 48.8615385,23.6923077 43.0153846,23.6923077 Z M43.0153846,3.44615385 C39.0769231,3.44615385 36.1846154,6.46153846 36.1846154,12 C36.1846154,17.5384615 39.1384615,20.5538462 43.0153846,20.5538462 C46.9538462,20.5538462 49.8461538,17.5384615 49.8461538,12 C49.8461538,6.46153846 46.8923077,3.44615385 43.0153846,3.44615385 Z" id="Shape"></path>
            </g>
            <g id="Group" transform="translate(92.923077, 0.000000)">
                <rect id="Rectangle" x="0.430769231" y="0.615384615" width="3.44615385" height="22.8307692"></rect>
                <polygon id="Path" points="23.2615385 17.3538462 23.0769231 17.3538462 11.4461538 0.615384615 8.30769231 0.615384615 8.30769231 23.3846154 11.6923077 23.3846154 11.6923077 6.64615385 11.9384615 6.64615385 23.5076923 23.3846154 26.7076923 23.3846154 26.7076923 0.615384615 23.2615385 0.615384615"></polygon>
                <path d="M50.2153846,11.7538462 L41.2307692,11.7538462 L41.2307692,14.5846154 L46.8923077,14.5846154 C46.8307692,18.2769231 44.3692308,20.6153846 40.7384615,20.6153846 C36.7384615,20.6153846 33.7846154,17.6 33.7846154,12 C33.7846154,6.46153846 36.7384615,3.44615385 40.6153846,3.44615385 C43.6307692,3.44615385 45.7230769,5.10769231 46.5230769,7.81538462 L50.0307692,7.81538462 C49.2923077,3.38461538 45.4769231,0.307692308 40.5538462,0.307692308 C34.6461538,0.307692308 30.3384615,4.73846154 30.3384615,12.0615385 C30.3384615,19.2615385 34.5230769,23.7538462 40.6769231,23.7538462 C43.2615385,23.7538462 45.5384615,22.9538462 47.1384615,21.5384615 L47.1384615,23.5692308 L50.1538462,23.5692308 L50.1538462,14.5230769 C50.1538462,14.4615385 50.1538462,14.4615385 50.1538462,14.4 L50.1538462,11.7538462 L50.2153846,11.7538462 Z" id="Path"></path>
            </g>
            <path d="M83.6923077,17.1692308 C83.6923077,18.8923077 82.2769231,20.2461538 80.6153846,20.2461538 C78.9538462,20.2461538 77.5384615,18.8307692 77.5384615,17.1692308 L77.5384615,6.27692308 C77.4153846,3.32307692 75.0153846,0.984615385 72.0615385,0.984615385 C69.0461538,0.984615385 66.6461538,3.32307692 66.5846154,6.33846154 L66.5846154,17.2923077 C66.5846154,19.0153846 65.1692308,20.3692308 63.5076923,20.3692308 C61.7846154,20.3692308 60.4307692,18.9538462 60.4307692,17.2923077 L60.4307692,7.13846154 C60.4307692,3.56923077 57.5384615,0.615384615 53.9692308,0.553846154 L53.9692308,4.06153846 C55.6307692,4.12307692 56.9846154,5.47692308 56.9846154,7.13846154 L56.9846154,17.1692308 C56.9846154,20.8 59.9384615,23.7538462 63.5692308,23.7538462 C67.1384615,23.7538462 70.1538462,20.7384615 70.1538462,17.1692308 L70.1538462,6.46153846 C70.1538462,5.35384615 71.0153846,4.49230769 72.1230769,4.49230769 C73.1692308,4.49230769 74.0307692,5.29230769 74.0923077,6.33846154 L74.0923077,17.1692308 C74.0923077,20.8 77.0461538,23.7538462 80.6769231,23.7538462 C84.2461538,23.7538462 87.2615385,20.7384615 87.2615385,17.1692308 L87.2615385,7.13846154 C87.2615385,5.47692308 88.6153846,4.06153846 90.2769231,4.06153846 L90.2769231,0.553846154 C87.0153846,0.615384615 84.1846154,3.07692308 83.7538462,6.33846154 L83.7538462,17.1692308 L83.6923077,17.1692308 Z" id="Path"></path>
            <path d="M149.969231,2.03076923 L151.446154,2.03076923 C152.430769,2.03076923 152.861538,2.58461538 152.861538,3.32307692 C152.861538,3.87692308 152.615385,4.30769231 152.123077,4.49230769 L153.046154,6.15384615 L152.369231,6.15384615 L151.507692,4.61538462 C151.507692,4.61538462 151.507692,4.61538462 151.446154,4.61538462 L150.584615,4.61538462 L150.584615,6.15384615 L149.969231,6.15384615 L149.969231,2.03076923 Z M151.384615,4.06153846 C152,4.06153846 152.246154,3.81538462 152.246154,3.32307692 C152.246154,2.83076923 152,2.58461538 151.384615,2.58461538 L150.584615,2.58461538 L150.584615,4.06153846 L151.384615,4.06153846 L151.384615,4.06153846 Z" id="Shape"></path>
        </g>
    </g>
</svg>