<?xml version="1.0" encoding="UTF-8"?>
<svg width="16px" height="17px" viewBox="0 0 16 17" version="1.1" xmlns="http://www.w3.org/2000/svg" xmlns:xlink="http://www.w3.org/1999/xlink">
    <!-- Generator: Sketch 53 (72520) - https://sketchapp.com -->
    <title>linkedin-full</title>
    <desc>Created with Sketch.</desc>
    <g id="Symbols" stroke="none" stroke-width="1" fill="none" fill-rule="evenodd">
        <g id="Icons-/-Social-/-Linkedin-/-White-Full" transform="translate(-4.000000, -3.000000)" fill="#6039E2" fill-rule="nonzero">
            <g id="linkedin-full" transform="translate(4.000000, 3.000000)">
                <polygon id="Path" points="3.6 16.8 0.5 16.8 0.5 5.1 3.6 5.1"></polygon>
                <path d="M15.3,16.8 L12.2,16.8 L12.2,9.5 C12.2,8.3 11.7,7.7 10.5,7.7 C9.1,7.7 8.2,8.7 8.2,10.3 L8.2,16.8 L5.1,16.8 L5.1,5.1 L8.2,5.1 L8.2,5.8 C9,5.3 10,5 11,5 C13.6,5 15.3,6.6 15.3,9 L15.3,16.8 Z" id="Path"></path>
                <path d="M2,4.6 C1,4.6 0.1,3.8 0.1,2.7 C0.1,1.6 1,0.9 2,0.9 C3,0.9 3.9,1.7 3.9,2.8 C3.9,3.9 3.1,4.6 2,4.6 Z" id="Path"></path>
            </g>
        </g>
    </g>
</svg>
