<svg width="172" height="56" viewBox="0 0 172 56" fill="none" xmlns="http://www.w3.org/2000/svg">
<path d="M56.1172 27.415L61.0764 13.6239H63.4724L68.4316 27.415H66.2306L64.9769 23.7652H59.5998L58.346 27.415H56.1172ZM64.364 22.01L62.3301 16.1314H62.2187L60.1849 22.01H64.364Z" fill="white"/>
<path d="M70.2705 17.0787H72.2208V18.7224H72.3322C72.7222 17.608 73.7531 16.9394 74.9511 16.9394C75.2018 16.9394 75.5919 16.9672 75.8148 16.9951V18.9175C75.6476 18.8617 75.174 18.806 74.7561 18.806C73.3352 18.806 72.2765 19.7812 72.2765 21.1463V27.415H70.2705V17.0787Z" fill="white"/>
<path d="M76.7061 22.2886C76.7061 19.1404 78.6006 16.9394 81.4981 16.9394C83.8384 16.9394 85.5379 18.3324 85.7608 20.4219H83.8105C83.5876 19.4468 82.8076 18.6389 81.526 18.6389C79.8543 18.6389 78.7399 20.0319 78.7399 22.2329C78.7399 24.4896 79.8265 25.9105 81.526 25.9105C82.6682 25.9105 83.5319 25.2418 83.8105 24.1274H85.7608C85.5379 26.1334 83.9498 27.61 81.526 27.61C78.517 27.6379 76.7061 25.409 76.7061 22.2886Z" fill="white"/>
<path d="M89.9405 27.415H87.9346V13.6239H89.9127V18.7782H90.052C90.5256 17.6637 91.5007 16.9672 93.1167 16.9672C95.2341 16.9672 96.655 18.2767 96.655 20.8677V27.415H94.649V21.0906C94.649 19.5861 93.8132 18.6946 92.448 18.6946C91.0271 18.6946 89.9684 19.6418 89.9684 21.2856V27.415H89.9405Z" fill="white"/>
<path d="M99.0781 14.2926C99.0781 13.6239 99.6632 13.0946 100.36 13.0946C101.056 13.0946 101.641 13.6518 101.641 14.2926C101.641 14.9334 101.056 15.4906 100.36 15.4906C99.6353 15.4906 99.0781 14.9612 99.0781 14.2926ZM99.3289 17.0787H101.335V27.415H99.3289V17.0787Z" fill="white"/>
<path d="M108.885 18.6946H106.768V24.3782C106.768 25.5483 107.353 25.7712 107.994 25.7712C108.328 25.7712 108.579 25.7155 108.69 25.6876L109.052 27.3593C108.829 27.4428 108.384 27.5543 107.743 27.5821C106.155 27.61 104.734 26.7185 104.734 24.8239V18.7224H103.229V17.1065H104.734V14.5991H106.74V17.0787H108.857V18.6946H108.885Z" fill="white"/>
<path d="M110.529 22.3165C110.529 19.1404 112.424 16.9394 115.321 16.9394C117.662 16.9394 119.89 18.3881 119.89 22.1215V22.8458H112.535C112.591 24.8239 113.733 25.9662 115.461 25.9662C116.603 25.9662 117.467 25.4647 117.857 24.4896L119.751 24.8239C119.305 26.4956 117.689 27.61 115.433 27.61C112.396 27.6379 110.529 25.5205 110.529 22.3165ZM117.912 21.3414C117.912 19.7533 116.882 18.611 115.321 18.611C113.678 18.611 112.619 19.8926 112.535 21.3414H117.912Z" fill="white"/>
<path d="M121.646 22.2886C121.646 19.1404 123.54 16.9394 126.438 16.9394C128.778 16.9394 130.477 18.3324 130.7 20.4219H128.75C128.527 19.4468 127.747 18.6389 126.465 18.6389C124.794 18.6389 123.679 20.0319 123.679 22.2329C123.679 24.4896 124.766 25.9105 126.465 25.9105C127.608 25.9105 128.471 25.2418 128.75 24.1274H130.7C130.477 26.1334 128.889 27.61 126.465 27.61C123.456 27.6379 121.646 25.409 121.646 22.2886Z" fill="white"/>
<path d="M137.693 18.6946H135.575V24.3782C135.575 25.5483 136.16 25.7712 136.801 25.7712C137.136 25.7712 137.386 25.7155 137.498 25.6876L137.86 27.3593C137.637 27.4428 137.191 27.5543 136.551 27.5821C134.962 27.61 133.542 26.7185 133.542 24.8239V18.7224H132.037V17.1065H133.542V14.5991H135.548V17.0787H137.665V18.6946H137.693Z" fill="white"/>
<path d="M146.47 17.0787H148.476V27.415H146.498V25.6319H146.386C145.912 26.7463 144.854 27.5543 143.294 27.5543C141.315 27.5543 139.895 26.217 139.895 23.6538V17.0787H141.901V23.4031C141.901 24.7961 142.764 25.7155 144.018 25.7155C145.16 25.7155 146.442 24.8797 146.442 23.1244V17.0787H146.47Z" fill="white"/>
<path d="M151.178 17.0787H153.128V18.7224H153.239C153.629 17.608 154.66 16.9394 155.858 16.9394C156.109 16.9394 156.499 16.9672 156.722 16.9951V18.9175C156.555 18.8617 156.081 18.806 155.663 18.806C154.242 18.806 153.184 19.7812 153.184 21.1463V27.415H151.178V17.0787Z" fill="white"/>
<path d="M157.864 24.4896C157.864 22.1493 159.87 21.62 161.82 21.3971C163.687 21.1742 164.439 21.202 164.439 20.4498V20.3941C164.439 19.2239 163.771 18.5553 162.461 18.5553C161.096 18.5553 160.344 19.2518 160.065 20.004L158.171 19.5861C158.839 17.6916 160.567 16.9394 162.433 16.9394C164.077 16.9394 166.445 17.5523 166.445 20.5334V27.415H164.467V25.9941H164.384C163.994 26.7742 163.046 27.6379 161.319 27.6379C159.397 27.6379 157.864 26.5234 157.864 24.4896ZM164.467 23.6817V22.3443C164.189 22.6229 162.628 22.818 161.988 22.9016C160.818 23.0687 159.87 23.4309 159.87 24.5175C159.87 25.5205 160.678 26.0219 161.82 26.0219C163.492 26.0219 164.467 24.9075 164.467 23.6817Z" fill="white"/>
<path d="M171.154 27.415H169.148V13.6239H171.154V27.415Z" fill="white"/>
<path d="M66.5096 39.1164C66.1752 37.3334 64.6986 36.3304 62.9434 36.3304C60.5752 36.3304 58.7922 38.1692 58.7922 41.5125C58.7922 44.8836 60.5752 46.6946 62.9434 46.6946C64.6986 46.6946 66.1752 45.7194 66.5096 43.9642H68.5991C68.1534 46.6946 65.9245 48.5891 62.9155 48.5891C59.3215 48.5891 56.7305 45.9145 56.7305 41.5125C56.7305 37.1105 59.3494 34.4359 62.9155 34.4359C65.8409 34.4359 68.1255 36.1632 68.5991 39.1164H66.5096V39.1164Z" fill="white"/>
<path d="M72.9454 48.3941H70.9395V34.603H72.9454V48.3941Z" fill="white"/>
<path d="M75.1738 45.4965C75.1738 43.1562 77.1798 42.6269 79.1301 42.404C80.9967 42.1811 81.749 42.209 81.749 41.4567V41.401C81.749 40.2309 81.0803 39.5622 79.7708 39.5622C78.4057 39.5622 77.6534 40.2587 77.3748 41.011L75.4803 40.5931C76.149 38.6985 77.8763 37.9463 79.743 37.9463C81.3868 37.9463 83.7549 38.5592 83.7549 41.5403V48.394H81.7768V46.9732H81.6932C81.3032 47.7533 80.3559 48.6169 78.6286 48.6169C76.7062 48.6448 75.1738 47.5304 75.1738 45.4965ZM81.749 44.6886V43.3513C81.4703 43.6299 79.9101 43.8249 79.2694 43.9085C78.0992 44.0756 77.1519 44.4378 77.1519 45.5244C77.1519 46.5274 77.9599 47.0289 79.1022 47.0289C80.7738 47.0289 81.749 45.9144 81.749 44.6886Z" fill="white"/>
<path d="M92.364 40.9274C92.1411 40.2309 91.5561 39.5343 90.3023 39.5343C89.16 39.5343 88.2964 40.0916 88.2964 40.8995C88.2964 41.596 88.77 41.9861 89.9123 42.2647L91.5561 42.6547C93.4506 43.1005 94.37 43.9921 94.37 45.4408C94.37 47.3075 92.6426 48.6448 90.1352 48.6448C87.8227 48.6448 86.2904 47.6139 85.9561 45.7751L87.9063 45.4687C88.157 46.4717 88.9093 47.001 90.1352 47.001C91.4446 47.001 92.3083 46.3881 92.3083 45.5801C92.3083 44.9393 91.8347 44.4936 90.8595 44.2707L89.1043 43.8806C87.1541 43.4627 86.2904 42.4876 86.2904 41.011C86.2904 39.1722 87.9342 37.9463 90.2745 37.9463C92.5033 37.9463 93.757 39.005 94.175 40.5931L92.364 40.9274Z" fill="white"/>
<path d="M98.6046 48.3941H96.5986V34.603H98.5767V39.7294H98.716C99.1897 38.615 100.165 37.9184 101.781 37.9184C103.898 37.9184 105.319 39.2279 105.319 41.8189V48.3941H103.313V42.0697C103.313 40.5652 102.477 39.6737 101.112 39.6737C99.6912 39.6737 98.6325 40.6209 98.6325 42.2647V48.3941H98.6046Z" fill="white"/>
<path d="M27.9273 7.21043L26.1543 8.9837L28.4004 11.2295L30.1735 9.45626L27.9273 7.21043Z" fill="white"/>
<path d="M41.073 13.4567L31.3774 3.76119L32.9655 2.17314L35.2222 4.42985L37.0053 2.64677L34.7486 0.39005L33.0491 2.08955L30.9595 0L29.2879 1.67164L27.6162 0L25.8331 1.78308L27.5048 3.45473L25.7496 5.20995L27.8391 7.2995L29.5943 5.54428L39.2899 15.2398C43.5247 19.4746 45.865 25.1303 45.865 31.1204C45.865 37.1104 43.5247 42.7662 39.2899 47.001C35.055 51.2358 29.4272 53.604 23.4371 53.604H23.4093C17.67 53.604 12.2929 51.3751 8.11375 47.4468C0.619219 39.9522 0.619219 27.7493 8.11375 20.2547C15.6083 12.7602 27.8113 12.7602 35.3058 20.2547C38.3147 23.2637 39.9307 27.3592 39.9307 31.6219C39.9307 35.8846 38.259 39.8965 35.2501 42.9055C29.0371 49.1184 18.9237 49.0627 12.7108 42.8497C7.7237 37.8627 7.7237 29.7274 12.7108 24.7403C15.1346 22.3164 18.3386 20.9791 21.7655 20.9791C24.9973 20.9791 28.0341 22.1771 30.4023 24.3502C34.0242 28.0557 33.9963 34.0179 30.3187 37.6955C26.6132 41.401 20.6232 41.401 16.9177 37.7234C15.7197 36.5254 15.0511 34.9095 15.0511 33.2099C15.0511 31.5104 15.7197 29.8945 16.9177 28.6687C17.5585 28.0279 18.3386 27.5264 19.1466 27.2199C17.2242 29.5045 17.3356 32.9313 19.4809 35.0766C20.5675 36.1632 22.0441 36.7761 23.6043 36.7761C25.1645 36.7761 26.6132 36.1632 27.7277 35.0766C29.9844 32.8199 29.9844 29.1701 27.7834 26.8856L27.7555 26.8577C27.7555 26.8577 27.7555 26.8577 27.7277 26.8298C27.6998 26.802 27.6998 26.802 27.672 26.7741C24.1894 23.403 18.6172 23.4308 15.1625 26.8577C13.4909 28.5294 12.5436 30.7861 12.5436 33.1542C12.5436 35.5224 13.463 37.7234 15.1068 39.4229C15.1068 39.4229 15.1068 39.4229 15.1346 39.4507L15.1625 39.4786C17.5028 41.791 20.5675 42.9333 23.6043 42.9333C26.669 42.9333 29.7615 41.7632 32.1018 39.4229C36.6152 34.9095 36.8938 27.61 32.1018 22.4279C29.2879 19.8368 25.6381 18.4159 21.7933 18.4159C17.6978 18.4159 13.853 20.0318 10.9555 22.9015C4.99335 28.8637 4.99335 38.5871 10.9555 44.5492C14.5496 48.1433 19.2859 49.9821 23.9943 49.9821C28.7307 49.9821 33.4391 48.1711 37.0331 44.5771C40.5157 41.0945 42.4381 36.4418 42.4381 31.5383C42.4381 26.607 40.5715 21.8706 37.0889 18.3881C28.6192 9.91841 14.8282 9.91841 6.35852 18.3881C-1.94397 26.6905 -2.11113 40.0637 5.82917 48.5612C10.5376 53.2696 16.7506 56 23.4093 56H23.4371C30.0958 56 36.3366 53.3811 41.0451 48.6726C45.7536 43.9642 48.3446 37.6398 48.3446 30.9811C48.3725 24.4338 45.7814 18.1652 41.073 13.4567ZM21.2361 28.6687C21.8491 28.0557 22.6849 27.6935 23.5764 27.6935C24.3287 27.6935 25.053 27.9443 25.6381 28.4179C25.7496 28.5015 25.8331 28.5851 25.9446 28.6965C27.1983 29.9781 27.1983 32.0677 25.9167 33.3493C25.3038 33.9622 24.468 34.3244 23.5764 34.3244C22.6849 34.3244 21.8491 33.99 21.2361 33.3493C19.9545 32.0398 19.9545 29.9502 21.2361 28.6687Z" fill="white"/>
</svg>
