<svg width="310" height="264" viewBox="0 0 310 264" fill="none" xmlns="http://www.w3.org/2000/svg">
<path d="M0 206.915L13.3348 169.832H19.7775L33.1124 206.915H27.1941L23.8229 197.101H9.36436L5.99319 206.915H0ZM22.1748 192.456L16.706 176.649H16.4064L10.9376 192.456H22.1748Z" fill="white"/>
<path d="M38.0566 179.121H43.3007V183.541H43.6003C44.6491 180.545 47.421 178.747 50.6423 178.747C51.3166 178.747 52.3654 178.822 52.9647 178.897V184.066C52.5152 183.916 51.2416 183.766 50.1179 183.766C46.2973 183.766 43.4505 186.388 43.4505 190.059V207.065H38.0566V179.121Z" fill="white"/>
<path d="M55.3623 193.205C55.3623 184.74 60.4565 178.822 68.2477 178.822C74.5405 178.822 79.1103 182.568 79.7096 188.186H74.4656C73.8663 185.564 71.7687 183.392 68.3226 183.392C63.8277 183.392 60.8311 187.137 60.8311 193.056C60.8311 199.124 63.7528 202.944 68.3226 202.944C71.3941 202.944 73.7164 201.146 74.4656 198.15H79.7096C79.1103 203.544 74.8402 207.514 68.3226 207.514C60.2318 207.514 55.3623 201.596 55.3623 193.205Z" fill="white"/>
<path d="M90.9466 206.915H85.5527V169.832H90.8717V183.616H91.2463C92.5198 180.62 95.1418 178.747 99.4869 178.747C105.18 178.747 109.001 182.268 109.001 189.235V206.915H103.607V189.909C103.607 185.864 101.36 183.467 97.6889 183.467C93.8683 183.467 91.0215 186.014 91.0215 190.434V206.915H90.9466Z" fill="white"/>
<path d="M115.519 171.63C115.519 169.832 117.092 168.409 118.965 168.409C120.837 168.409 122.411 169.907 122.411 171.63C122.411 173.353 120.837 174.851 118.965 174.851C117.017 174.851 115.519 173.428 115.519 171.63ZM116.193 179.121H121.587V206.915H116.193V179.121Z" fill="white"/>
<path d="M141.888 183.467H136.195V198.824C136.195 201.97 137.768 202.57 139.491 202.57C140.39 202.57 141.064 202.42 141.364 202.345L142.338 206.84C141.739 207.065 140.54 207.364 138.817 207.439C134.547 207.514 130.726 205.117 130.726 200.023V183.616H126.681V179.271H130.726V172.604H136.12V179.271H141.813V183.467H141.888Z" fill="white"/>
<path d="M146.309 193.205C146.309 184.665 151.403 178.747 159.119 178.747C165.412 178.747 171.405 182.642 171.405 192.681V194.629H151.702C151.852 199.948 154.924 203.019 159.569 203.019C162.64 203.019 164.962 201.671 166.011 199.049L171.105 199.948C169.907 204.443 165.562 207.439 159.494 207.439C151.328 207.514 146.309 201.896 146.309 193.205ZM166.161 190.658C166.161 186.388 163.389 183.317 159.194 183.317C154.774 183.317 151.927 186.763 151.702 190.658H166.161Z" fill="white"/>
<path d="M176.2 193.205C176.2 184.74 181.294 178.822 189.086 178.822C195.378 178.822 199.948 182.568 200.548 188.186H195.303C194.704 185.564 192.607 183.392 189.16 183.392C184.666 183.392 181.669 187.137 181.669 193.056C181.669 199.124 184.591 202.944 189.16 202.944C192.232 202.944 194.554 201.146 195.303 198.15H200.548C199.948 203.544 195.678 207.514 189.16 207.514C181.07 207.514 176.2 201.596 176.2 193.205Z" fill="white"/>
<path d="M219.35 183.467H213.657V198.824C213.657 201.97 215.23 202.57 216.953 202.57C217.852 202.57 218.526 202.42 218.826 202.345L219.8 206.84C219.2 207.065 218.002 207.364 216.279 207.439C212.009 207.514 208.188 205.117 208.188 200.023V183.616H204.143V179.271H208.188V172.604H213.582V179.271H219.275V183.467H219.35Z" fill="white"/>
<path d="M242.949 179.121H248.343V206.915H243.024V202.12H242.725C241.451 205.117 238.604 207.289 234.409 207.289C229.09 207.289 225.27 203.694 225.27 196.801V179.121H230.663V196.127C230.663 199.873 232.986 202.345 236.357 202.345C239.428 202.345 242.875 200.098 242.875 195.378V179.121H242.949Z" fill="white"/>
<path d="M255.609 179.121H260.853V183.541H261.153C262.202 180.545 264.974 178.747 268.195 178.747C268.869 178.747 269.918 178.822 270.517 178.897V184.066C270.068 183.916 268.794 183.766 267.671 183.766C263.85 183.766 261.003 186.388 261.003 190.059V207.065H255.609V179.121Z" fill="white"/>
<path d="M273.589 199.124C273.589 192.831 278.983 191.407 284.227 190.808C289.246 190.209 291.269 190.284 291.269 188.261V188.111C291.269 184.965 289.471 183.167 285.95 183.167C282.279 183.167 280.256 185.04 279.507 187.062L274.413 185.939C276.211 180.844 280.856 178.822 285.875 178.822C290.295 178.822 296.663 180.47 296.663 188.486V206.915H291.344V203.094H291.119C290.07 205.192 287.523 207.514 282.878 207.514C277.709 207.589 273.589 204.593 273.589 199.124ZM291.344 196.951V193.355C290.595 194.104 286.399 194.629 284.676 194.854C281.53 195.303 278.983 196.277 278.983 199.199C278.983 201.896 281.155 203.244 284.227 203.244C288.722 203.244 291.344 200.247 291.344 196.951Z" fill="white"/>
<path d="M309.324 206.915H303.93V169.832H309.324V206.915Z" fill="white"/>
<path d="M116.493 238.379C115.594 233.585 111.624 230.888 106.904 230.888C100.536 230.888 95.7419 235.832 95.7419 244.822C95.7419 253.886 100.536 258.756 106.904 258.756C111.624 258.756 115.594 256.134 116.493 251.414H122.112C120.913 258.756 114.92 263.85 106.829 263.85C97.1653 263.85 90.1982 256.658 90.1982 244.822C90.1982 232.985 97.2402 225.793 106.829 225.793C114.695 225.793 120.838 230.438 122.112 238.379H116.493Z" fill="white"/>
<path d="M133.798 263.401H128.404V226.318H133.798V263.401Z" fill="white"/>
<path d="M139.791 255.535C139.791 249.242 145.185 247.818 150.429 247.219C155.448 246.62 157.471 246.695 157.471 244.672V244.522C157.471 241.376 155.673 239.578 152.152 239.578C148.481 239.578 146.458 241.451 145.709 243.473L140.615 242.35C142.413 237.255 147.058 235.233 152.077 235.233C156.497 235.233 162.865 236.881 162.865 244.897V263.326H157.546V259.505H157.321C156.272 261.603 153.725 263.925 149.08 263.925C143.911 264 139.791 261.003 139.791 255.535ZM157.471 253.362V249.766C156.722 250.515 152.527 251.04 150.803 251.264C147.657 251.714 145.11 252.688 145.11 255.61C145.11 258.306 147.283 259.655 150.354 259.655C154.849 259.655 157.471 256.658 157.471 253.362Z" fill="white"/>
<path d="M186.014 243.249C185.414 241.376 183.841 239.503 180.47 239.503C177.398 239.503 175.076 241.001 175.076 243.174C175.076 245.047 176.35 246.095 179.421 246.844L183.841 247.893C188.935 249.092 191.407 251.489 191.407 255.385C191.407 260.404 186.763 264 180.02 264C173.802 264 169.682 261.228 168.783 256.284L174.027 255.46C174.701 258.157 176.724 259.58 180.02 259.58C183.541 259.58 185.864 257.932 185.864 255.759C185.864 254.036 184.59 252.838 181.968 252.238L177.249 251.19C172.005 250.066 169.682 247.444 169.682 243.473C169.682 238.529 174.102 235.233 180.395 235.233C186.388 235.233 189.759 238.079 190.883 242.35L186.014 243.249Z" fill="white"/>
<path d="M202.794 263.401H197.4V226.318H202.719V240.102H203.094C204.367 237.106 206.989 235.233 211.335 235.233C217.028 235.233 220.849 238.754 220.849 245.721V263.401H215.38V246.395C215.38 242.35 213.133 239.952 209.462 239.952C205.641 239.952 202.794 242.499 202.794 246.919V263.401Z" fill="white"/>
<path d="M166.852 19.3853L162.085 24.1534L168.125 30.1923L172.892 25.4241L166.852 19.3853Z" fill="white"/>
<path d="M202.195 36.1839L176.125 10.1135L180.395 5.84336L186.463 11.9115L191.258 7.11691L185.19 1.04881L180.62 5.61861L175.001 0L170.506 4.49489L166.011 0L161.217 4.79455L165.712 9.28944L160.992 14.0091L166.611 19.6277L171.33 14.9081L197.401 40.9784C208.788 52.3655 215.081 67.5732 215.081 83.6799C215.081 99.7866 208.788 114.994 197.401 126.381C186.014 137.768 170.881 144.136 154.774 144.136H154.699C139.267 144.136 124.808 138.143 113.571 127.58C93.4189 107.428 93.4189 74.6152 113.571 54.4631C133.723 34.311 166.536 34.311 186.688 54.4631C194.779 62.5539 199.124 73.5664 199.124 85.0284C199.124 96.4903 194.629 107.278 186.538 115.369C169.832 132.075 142.638 131.925 125.932 115.219C112.522 101.809 112.522 79.9341 125.932 66.5244C132.45 60.0068 141.065 56.4109 150.279 56.4109C158.969 56.4109 167.135 59.6322 173.503 65.4756C183.242 75.4393 183.167 91.471 173.278 101.36C163.314 111.323 147.208 111.323 137.244 101.435C134.023 98.2134 132.225 93.8683 132.225 89.2985C132.225 84.7287 134.023 80.3836 137.244 77.0874C138.967 75.3643 141.065 74.0159 143.237 73.1918C138.068 79.3348 138.368 88.5494 144.136 94.3178C147.058 97.2395 151.028 98.8876 155.224 98.8876C159.419 98.8876 163.314 97.2395 166.311 94.3178C172.379 88.2497 172.379 78.4359 166.461 72.2928L166.386 72.2179C166.386 72.2179 166.386 72.2179 166.311 72.143C166.236 72.0681 166.236 72.0681 166.161 71.9932C156.797 62.9285 141.814 63.0034 132.524 72.2179C128.03 76.7128 125.482 82.7809 125.482 89.1487C125.482 95.5164 127.955 101.435 132.375 106.005C132.375 106.005 132.375 106.005 132.45 106.079L132.524 106.154C138.817 112.372 147.058 115.444 155.224 115.444C163.464 115.444 171.78 112.297 178.073 106.005C190.209 93.8683 190.958 74.2406 178.073 60.3065C170.506 53.3394 160.692 49.5187 150.354 49.5187C139.342 49.5187 129.003 53.8638 121.212 61.58C105.181 77.6118 105.181 103.757 121.212 119.789C130.876 129.453 143.612 134.397 156.272 134.397C169.008 134.397 181.669 129.528 191.333 119.864C200.697 110.499 205.866 97.9886 205.866 84.8036C205.866 71.5437 200.847 58.8082 191.482 49.4438C168.708 26.6697 131.626 26.6697 108.851 49.4438C86.5268 71.7684 86.0773 107.728 107.428 130.577C120.089 143.237 136.795 150.579 154.699 150.579H154.774C172.679 150.579 189.46 143.537 202.12 130.876C214.781 118.216 221.748 101.21 221.748 83.3053C221.823 65.7003 214.856 48.8445 202.195 36.1839ZM148.856 77.0874C150.504 75.4393 152.751 74.4654 155.149 74.4654C157.171 74.4654 159.119 75.1396 160.692 76.4132C160.992 76.6379 161.217 76.8626 161.517 77.1623C164.888 80.6084 164.888 86.227 161.442 89.6731C159.793 91.3212 157.546 92.2951 155.149 92.2951C152.751 92.2951 150.504 91.3961 148.856 89.6731C145.41 86.1521 145.41 80.5335 148.856 77.0874Z" fill="white"/>
</svg>
