<?xml version="1.0" encoding="utf-8"?>
<!-- Generator: Adobe Illustrator 16.0.0, SVG Export Plug-In . SVG Version: 6.00 Build 0)  -->
<!DOCTYPE svg PUBLIC "-//W3C//DTD SVG 1.1//EN" "http://www.w3.org/Graphics/SVG/1.1/DTD/svg11.dtd">
<svg version="1.1" id="Livello_1" xmlns="http://www.w3.org/2000/svg" xmlns:xlink="http://www.w3.org/1999/xlink" x="0px" y="0px"
	 width="327px" height="325px" viewBox="0 0 327 325" style="enable-background:new 0 0 327 325;" xml:space="preserve">
<style type="text/css">
<![CDATA[
	.st0{fill:none;stroke:#FFFF00;stroke-miterlimit:10;}
	.st1{fill:none;}
	.st2{fill:none;stroke:#FFFFFF;stroke-width:9;stroke-miterlimit:10;}
	.st3{fill:#0000FF;}
]]>
</style>
<g>
	<rect x="173.6" y="79" transform="matrix(0.7071 -0.7072 0.7072 0.7071 -7.7709 150.7551)" width="9" height="11.4"/>
	<path d="M224.4,99.9l-34.8-34.8l5.7-5.7l8.1,8.1l6.4-6.4l-8.1-8.1l-6.1,6.1l-7.5-7.5l-6,6l-6-6l-6.4,6.4l6,6l-6.3,6.3l7.5,7.5
		l6.3-6.3l34.8,34.8c15.2,15.2,23.6,35.5,23.6,57c0,21.5-8.4,41.8-23.6,57c-15.2,15.2-35.4,23.7-56.9,23.7c0,0-0.1,0-0.1,0
		c-20.6,0-39.9-8-54.9-22.1c-26.9-26.9-26.9-70.7,0-97.6c26.9-26.9,70.7-26.9,97.6,0c10.8,10.8,16.6,25.5,16.6,40.8
		s-6,29.7-16.8,40.5c-22.3,22.3-58.6,22.1-80.9-0.2c-17.9-17.9-17.9-47.1,0-65c8.7-8.7,20.2-13.5,32.5-13.5c0,0,0,0,0,0
		c11.6,0,22.5,4.3,31,12.1c13,13.3,12.9,34.7-0.3,47.9c-13.3,13.3-34.8,13.3-48.1,0.1c-4.3-4.3-6.7-10.1-6.7-16.2
		c0-6.1,2.4-11.9,6.7-16.3c2.3-2.3,5.1-4.1,8-5.2c-6.9,8.2-6.5,20.5,1.2,28.2c3.9,3.9,9.2,6.1,14.8,6.1c5.6,0,10.8-2.2,14.8-6.1
		c8.1-8.1,8.1-21.2,0.2-29.4l0,0c0,0-0.1-0.1-0.1-0.1c0,0,0,0-0.1-0.1c-0.1-0.1-0.1-0.1-0.2-0.2c-12.5-12.1-32.5-12-44.9,0.3
		c-6,6-9.4,14.1-9.4,22.6c0,8.5,3.3,16.4,9.2,22.5l0,0c0,0,0,0,0.1,0.1c0,0,0.1,0.1,0.1,0.1l0,0c8.4,8.3,19.4,12.4,30.3,12.4
		c11,0,22.1-4.2,30.5-12.6c16.2-16.2,17.2-42.4,0-61c-10.1-9.3-23.2-14.4-37-14.4c0,0,0,0,0,0c-14.7,0-28.5,5.8-38.9,16.1
		c-21.4,21.4-21.4,56.3,0,77.7c12.9,12.9,29.9,19.5,46.8,19.5c17,0,33.9-6.5,46.8-19.4c12.5-12.5,19.4-29.2,19.4-46.8
		c0-17.7-6.7-34.7-19.2-47.2c-30.4-30.4-79.9-30.4-110.3,0c-29.8,29.8-30.4,77.8-1.9,108.3c16.9,16.9,39.2,26.7,63.1,26.7
		c0,0,0.1,0,0.1,0c23.9,0,46.3-9.4,63.2-26.3c16.9-16.9,26.2-39.6,26.2-63.5C250.6,139.3,241.3,116.8,224.4,99.9z M153.2,154.5
		c2.2-2.2,5.2-3.5,8.4-3.5c2.7,0,5.3,0.9,7.4,2.6c0.4,0.3,0.7,0.6,1.1,1c4.5,4.6,4.5,12.1-0.1,16.7c-2.2,2.2-5.2,3.5-8.4,3.5
		c-3.2,0-6.2-1.2-8.4-3.5C148.6,166.6,148.6,159.1,153.2,154.5z"/>
</g>
</svg>
