<?xml version="1.0" encoding="UTF-8"?>
<svg width="20px" height="16px" viewBox="0 0 20 16" version="1.1" xmlns="http://www.w3.org/2000/svg" xmlns:xlink="http://www.w3.org/1999/xlink">
    <!-- Generator: Sketch 53 (72520) - https://sketchapp.com -->
    <title>Path</title>
    <desc>Created with Sketch.</desc>
    <g id="Symbols" stroke="none" stroke-width="1" fill="none" fill-rule="evenodd">
        <g id="Icons-/-Social-/-Twitter-/-White-Full" transform="translate(-2.000000, -4.000000)" fill="#6039E2" fill-rule="nonzero">
            <g id="twitter-full" transform="translate(2.000000, 4.000000)">
                <path d="M6.72054,15.64223 C4.62054,15.64223 2.62054,15.04223 0.92054,13.94223 C0.72054,13.84223 0.62054,13.54223 0.72054,13.34223 C0.82054,13.14223 1.02054,12.94223 1.22054,13.04223 C2.62054,13.24223 4.02054,12.94223 5.12054,12.34223 C3.92054,11.94223 3.02054,10.94223 2.62054,9.74223 C2.52054,9.54223 2.62054,9.34223 2.72054,9.24223 C2.72054,9.24223 2.82054,9.14223 2.82054,9.14223 C1.92054,8.34223 1.32054,7.24223 1.32054,5.94223 C1.32054,5.94223 1.32054,5.84223 1.32054,5.84223 C1.32054,5.64223 1.42054,5.54223 1.62054,5.44223 C1.72054,5.44223 1.82054,5.34223 1.92054,5.44223 C1.52054,4.84223 1.42054,4.14223 1.42054,3.44223 C1.42054,2.74223 1.62054,2.04223 2.02054,1.34223 C2.12054,1.24223 2.22054,1.14223 2.42054,1.14223 C2.62054,1.14223 2.72054,1.24223 2.82054,1.34223 C4.42054,3.34223 6.72054,4.54223 9.22054,4.84223 C9.22054,4.74223 9.22054,4.64223 9.22054,4.54223 C9.22054,2.24223 11.02054,0.44223 13.32054,0.44223 C14.32054,0.44223 15.32054,0.84223 16.12054,1.54223 C16.82054,1.34223 17.42054,1.14223 18.02054,0.74223 C18.22054,0.64223 18.42054,0.64223 18.62054,0.74223 C18.82054,0.84223 18.82054,1.04223 18.82054,1.24223 C18.72054,1.54223 18.62054,1.84223 18.42054,2.14223 C18.52054,2.14223 18.52054,2.04223 18.62054,2.04223 C18.82054,1.94223 19.02054,2.04223 19.22054,2.14223 C19.32054,2.34223 19.42054,2.54223 19.22054,2.74223 C18.72054,3.44223 18.22054,4.04223 17.52054,4.54223 C17.52054,4.64223 17.52054,4.64223 17.52054,4.74223 C17.52054,10.14223 13.42054,15.64223 6.72054,15.64223 Z" id="Path"></path>
            </g>
        </g>
    </g>
</svg>
